<svg xmlns="http://www.w3.org/2000/svg" xml:space="preserve" style="enable-background:new 0 0 200 200" viewBox="0 0 200 200"><style>.st3{fill:#121212}</style><g id="Layer_2"><circle cx="100" cy="100" r="99.5" style="fill:#599afc"/><path d="M63.14 63.14c-3.53 0-6.82-1.41-9.26-3.96a12.7 12.7 0 0 1-3.54-9.44c.3-6.86 6.1-12.24 13.21-12.24h86.14c-7.07 0-12.82 5.75-12.82 12.82s5.75 12.82 12.82 12.82H63.14z" style="fill:#fff"/><path d="M140.92 39c-3.38 2.62-5.56 6.72-5.56 11.32 0 4.6 2.18 8.7 5.56 11.32H63.14c-3.12 0-6.02-1.24-8.18-3.5-2.16-2.25-3.27-5.21-3.13-8.34.27-6.05 5.41-10.8 11.71-10.8h77.38m8.76-3H63.54c-7.91 0-14.37 6.01-14.71 13.67-.17 3.95 1.23 7.7 3.96 10.55a14.2 14.2 0 0 0 10.35 4.42h86.54c.83 0 1.5-.67 1.5-1.5s-.67-1.5-1.5-1.5c-6.24 0-11.32-5.08-11.32-11.32S143.44 39 149.68 39c.83 0 1.5-.67 1.5-1.5s-.67-1.5-1.5-1.5z" class="st3"/><path d="M151.18 63.15a1.55 1.55 0 0 0-1.55-1.51H63.14c-5.77 0-10.55-4.34-11.24-9.93-.1-.79-.74-1.39-1.54-1.39-.86 0-1.55.69-1.55 1.55v96.22c0 8.79 7.12 15.91 15.91 15.91H149.66a1.55 1.55 0 0 0 1.51-1.55V63.18l.01-.03z" style="fill:#fc0"/><path d="M64.68 61.7h-1.5c-6.24-.02-11.31-5.11-11.31-11.35h-3v99.31c0 7.88 6.41 14.32 14.3 14.35l1.54-.04V63.24l-.03-1.54z" class="st3"/></g></svg>