<svg xmlns="http://www.w3.org/2000/svg" xml:space="preserve" id="spreadsheet" x="0" y="0" style="enable-background:new 0 0 200 200" version="1.1" viewBox="0 0 200 200"><style>.st1{fill:none;stroke:#fff;stroke-width:3;stroke-linecap:round;stroke-linejoin:round;stroke-miterlimit:10}</style><circle cx="100" cy="100" r="99.5" style="fill:#489d22"/><path d="M125.5 37.5H150v125H50v-125h25.5" class="st1"/><path d="M120.5 42.5h-40c-2.75 0-5-2.25-5-5v0c0-2.75 2.25-5 5-5h40c2.75 0 5 2.25 5 5v0c0 2.75-2.25 5-5 5zM60.5 92.5h80v60h-80zM60.5 137.5h80M60.5 122.5h80M60.5 107.5h80M120.5 92.5v60M100.5 92.5v60M80.5 92.5v60M70 83l19-11 19 7 22-25" class="st1"/></svg>